<svg version="1.1" xmlns="http://www.w3.org/2000/svg" width="46" height="40">
<path d="M0 0 C2.97 0 5.94 0 9 0 C9.12375 0.763125 9.2475 1.52625 9.375 2.3125 C9.88102792 5.20267136 9.88102792 5.20267136 12 8 C14.01463722 8.13617744 14.01463722 8.13617744 16.25 7.8125 C19.98631694 7.68553777 21.83289657 8.08851167 24.625 10.625 C26.66965985 13.04555832 26.98665619 13.78205112 27.1875 17.0625 C25.74568342 20.62909891 23.87297068 22.4773916 21 25 C20.34 25.66 19.68 26.32 19 27 C14.76669791 27.88193794 13.0010732 27.64115314 9.31640625 25.28125 C6.7556861 23.27626061 4.29791019 21.30253375 2 19 C2 18.34 2 17.68 2 17 C1.34 17 0.68 17 0 17 C0 11.39 0 5.78 0 0 Z " fill="#000000" transform="translate(6,8)"/>
<path d="M0 0 C3.08681284 0.53425607 5.86635703 1 9 1 C9 6.61 9 12.22 9 18 C3.04034533 16.80806907 2.29743455 15.37397016 -1.15625 10.8125 C-3.4160645 8.59098744 -4.89331806 8.34188366 -8 8 C-10.6875 7.6875 -10.6875 7.6875 -13 7 C-14.14453125 4.95703125 -14.14453125 4.95703125 -15 3 C-9.61412775 -0.25950191 -6.35683519 -1.53034921 0 0 Z " fill="#000000" transform="translate(31,7)"/>
</svg>
