<?xml version="1.0" encoding="utf-8"?>
<!-- Generator: Adobe Illustrator 26.3.1, SVG Export Plug-In . SVG Version: 6.00 Build 0)  -->
<svg version="1.1" id="Capa_1" xmlns="http://www.w3.org/2000/svg" xmlns:xlink="http://www.w3.org/1999/xlink" x="0px" y="0px"
	 viewBox="0 0 30 30" style="enable-background:new 0 0 30 30;" xml:space="preserve">
<style type="text/css">
	.st0{fill:#3A42A8;}
	.st1{fill:#1D2375;}
	.st2{fill:#2E3190;}
	.st3{fill:#00A0B3;}
	.st4{fill:#FD2A5C;}
	.st5{fill:#ECEEEE;}
	.st6{fill:#FC5F88;}
	.st7{fill:#D50E48;}
	.st8{fill:#B7CACE;}
	.st9{fill:#96A4A6;}
</style>
<g>
	<rect x="23.55" y="26" class="st0" width="1.22" height="1.22"/>
	<rect x="23.55" y="24.77" class="st0" width="1.22" height="1.22"/>
	<rect x="23.55" y="23.55" class="st0" width="1.22" height="1.22"/>
	<rect x="23.55" y="22.33" class="st0" width="1.22" height="1.22"/>
	<rect x="23.55" y="21.11" class="st0" width="1.22" height="1.22"/>
	<rect x="22.33" y="27.22" class="st1" width="1.22" height="1.22"/>
	<rect x="22.33" y="26" class="st1" width="1.22" height="1.22"/>
	<rect x="22.33" y="24.77" class="st2" width="1.22" height="1.22"/>
	<rect x="22.33" y="23.55" class="st2" width="1.22" height="1.22"/>
	<rect x="22.33" y="22.33" class="st2" width="1.22" height="1.22"/>
	<rect x="22.33" y="21.11" class="st2" width="1.22" height="1.22"/>
	<rect x="22.33" y="19.89" class="st0" width="1.22" height="1.22"/>
	<rect x="21.11" y="28.44" class="st3" width="1.22" height="1.22"/>
	<rect x="21.11" y="27.22" class="st1" width="1.22" height="1.22"/>
	<rect x="21.11" y="26" class="st4" width="1.22" height="1.22"/>
	<rect x="21.11" y="24.77" class="st2" width="1.22" height="1.22"/>
	<rect x="21.11" y="23.55" class="st2" width="1.22" height="1.22"/>
	<rect x="21.11" y="22.33" class="st2" width="1.22" height="1.22"/>
	<rect x="21.11" y="21.11" class="st2" width="1.22" height="1.22"/>
	<rect x="21.11" y="19.89" class="st0" width="1.22" height="1.22"/>
	<rect x="19.88" y="28.44" class="st3" width="1.22" height="1.22"/>
	<rect x="19.88" y="27.22" class="st1" width="1.22" height="1.22"/>
	<rect x="19.88" y="26" class="st1" width="1.22" height="1.22"/>
	<rect x="19.88" y="24.77" class="st2" width="1.22" height="1.22"/>
	<rect x="19.88" y="23.55" class="st2" width="1.22" height="1.22"/>
	<rect x="19.88" y="22.33" class="st2" width="1.22" height="1.22"/>
	<rect x="19.88" y="21.11" class="st2" width="1.22" height="1.22"/>
	<rect x="19.88" y="19.89" class="st0" width="1.22" height="1.22"/>
	<rect x="19.88" y="7.67" class="st5" width="1.22" height="1.22"/>
	<rect x="19.88" y="6.45" class="st5" width="1.22" height="1.22"/>
	<rect x="19.88" y="5.23" class="st5" width="1.22" height="1.22"/>
	<rect x="19.88" y="4.01" class="st5" width="1.22" height="1.22"/>
	<rect x="19.88" y="2.79" class="st5" width="1.22" height="1.22"/>
	<rect x="18.66" y="28.44" class="st3" width="1.22" height="1.22"/>
	<rect x="18.66" y="27.22" class="st1" width="1.22" height="1.22"/>
	<rect x="18.66" y="26" class="st4" width="1.22" height="1.22"/>
	<rect x="18.66" y="24.77" class="st2" width="1.22" height="1.22"/>
	<rect x="18.66" y="23.55" class="st2" width="1.22" height="1.22"/>
	<rect x="18.66" y="22.33" class="st2" width="1.22" height="1.22"/>
	<rect x="18.66" y="21.11" class="st2" width="1.22" height="1.22"/>
	<rect x="18.66" y="19.89" class="st0" width="1.22" height="1.22"/>
	<rect x="18.66" y="8.89" class="st4" width="1.22" height="1.22"/>
	<rect x="18.66" y="7.67" class="st6" width="1.22" height="1.22"/>
	<rect x="18.66" y="6.45" class="st6" width="1.22" height="1.22"/>
	<rect x="18.66" y="5.23" class="st6" width="1.22" height="1.22"/>
	<rect x="18.66" y="4.01" class="st6" width="1.22" height="1.22"/>
	<rect x="18.66" y="2.79" class="st6" width="1.22" height="1.22"/>
	<rect x="18.66" y="1.56" class="st5" width="1.22" height="1.22"/>
	<rect x="17.44" y="28.44" class="st3" width="1.22" height="1.22"/>
	<rect x="17.44" y="27.22" class="st1" width="1.22" height="1.22"/>
	<rect x="17.44" y="26" class="st1" width="1.22" height="1.22"/>
	<rect x="17.44" y="24.77" class="st2" width="1.22" height="1.22"/>
	<rect x="17.44" y="23.55" class="st2" width="1.22" height="1.22"/>
	<rect x="17.44" y="22.33" class="st2" width="1.22" height="1.22"/>
	<rect x="17.44" y="21.11" class="st2" width="1.22" height="1.22"/>
	<rect x="17.44" y="19.89" class="st0" width="1.22" height="1.22"/>
	<rect x="17.44" y="10.11" class="st7" width="1.22" height="1.22"/>
	<rect x="17.44" y="8.89" class="st4" width="1.22" height="1.22"/>
	<rect x="17.44" y="7.67" class="st6" width="1.22" height="1.22"/>
	<rect x="17.44" y="6.45" class="st6" width="1.22" height="1.22"/>
	<rect x="17.44" y="5.23" class="st6" width="1.22" height="1.22"/>
	<rect x="17.44" y="4.01" class="st6" width="1.22" height="1.22"/>
	<rect x="17.44" y="2.79" class="st6" width="1.22" height="1.22"/>
	<rect x="17.44" y="1.56" class="st6" width="1.22" height="1.22"/>
	<rect x="17.44" y="0.34" class="st5" width="1.22" height="1.22"/>
	<rect x="16.22" y="28.44" class="st3" width="1.22" height="1.22"/>
	<rect x="16.22" y="27.22" class="st1" width="1.22" height="1.22"/>
	<rect x="16.22" y="26" class="st4" width="1.22" height="1.22"/>
	<rect x="16.22" y="24.77" class="st2" width="1.22" height="1.22"/>
	<rect x="16.22" y="23.55" class="st2" width="1.22" height="1.22"/>
	<rect x="16.22" y="22.33" class="st2" width="1.22" height="1.22"/>
	<rect x="16.22" y="21.11" class="st2" width="1.22" height="1.22"/>
	<rect x="16.22" y="19.89" class="st0" width="1.22" height="1.22"/>
	<rect x="16.22" y="18.66" class="st8" width="1.22" height="1.22"/>
	<rect x="16.22" y="17.44" class="st8" width="1.22" height="1.22"/>
	<rect x="16.22" y="16.22" class="st8" width="1.22" height="1.22"/>
	<rect x="16.22" y="15" class="st8" width="1.22" height="1.22"/>
	<rect x="16.22" y="13.78" class="st8" width="1.22" height="1.22"/>
	<rect x="16.22" y="12.56" class="st8" width="1.22" height="1.22"/>
	<rect x="16.22" y="11.34" class="st9" width="1.22" height="1.22"/>
	<rect x="16.22" y="10.11" class="st7" width="1.22" height="1.22"/>
	<rect x="16.22" y="8.89" class="st4" width="1.22" height="1.22"/>
	<rect x="16.22" y="7.67" class="st4" width="1.22" height="1.22"/>
	<rect x="16.22" y="6.45" class="st6" width="1.22" height="1.22"/>
	<rect x="16.22" y="5.23" class="st6" width="1.22" height="1.22"/>
	<rect x="16.22" y="4.01" class="st6" width="1.22" height="1.22"/>
	<rect x="16.22" y="2.79" class="st6" width="1.22" height="1.22"/>
	<rect x="16.22" y="1.56" class="st6" width="1.22" height="1.22"/>
	<rect x="16.22" y="0.34" class="st5" width="1.22" height="1.22"/>
	<rect x="15" y="28.44" class="st3" width="1.22" height="1.22"/>
	<rect x="15" y="27.22" class="st1" width="1.22" height="1.22"/>
	<rect x="15" y="26" class="st1" width="1.22" height="1.22"/>
	<rect x="15" y="24.77" class="st2" width="1.22" height="1.22"/>
	<rect x="15" y="23.55" class="st2" width="1.22" height="1.22"/>
	<rect x="15" y="22.33" class="st2" width="1.22" height="1.22"/>
	<rect x="15" y="21.11" class="st2" width="1.22" height="1.22"/>
	<rect x="15" y="19.89" class="st0" width="1.22" height="1.22"/>
	<rect x="15" y="18.66" class="st8" width="1.22" height="1.22"/>
	<rect x="15" y="17.44" class="st8" width="1.22" height="1.22"/>
	<rect x="15" y="16.22" class="st8" width="1.22" height="1.22"/>
	<rect x="15" y="15" class="st8" width="1.22" height="1.22"/>
	<rect x="15" y="13.78" class="st8" width="1.22" height="1.22"/>
	<rect x="15" y="12.56" class="st8" width="1.22" height="1.22"/>
	<rect x="15" y="11.34" class="st9" width="1.22" height="1.22"/>
	<rect x="15" y="10.11" class="st7" width="1.22" height="1.22"/>
	<rect x="15" y="8.89" class="st4" width="1.22" height="1.22"/>
	<rect x="15" y="7.67" class="st4" width="1.22" height="1.22"/>
	<rect x="15" y="6.45" class="st4" width="1.22" height="1.22"/>
	<rect x="15" y="5.23" class="st6" width="1.22" height="1.22"/>
	<rect x="15" y="4.01" class="st6" width="1.22" height="1.22"/>
	<rect x="15" y="2.79" class="st6" width="1.22" height="1.22"/>
	<rect x="15" y="1.56" class="st6" width="1.22" height="1.22"/>
	<rect x="15" y="0.34" class="st5" width="1.22" height="1.22"/>
	<rect x="13.78" y="28.44" class="st3" width="1.22" height="1.22"/>
	<rect x="13.78" y="27.22" class="st1" width="1.22" height="1.22"/>
	<rect x="13.78" y="26" class="st1" width="1.22" height="1.22"/>
	<rect x="13.78" y="24.77" class="st2" width="1.22" height="1.22"/>
	<rect x="13.78" y="23.55" class="st2" width="1.22" height="1.22"/>
	<rect x="13.78" y="22.33" class="st2" width="1.22" height="1.22"/>
	<rect x="13.78" y="21.11" class="st2" width="1.22" height="1.22"/>
	<rect x="13.78" y="19.89" class="st2" width="1.22" height="1.22"/>
	<rect x="13.78" y="18.66" class="st9" width="1.22" height="1.22"/>
	<rect x="13.78" y="17.44" class="st9" width="1.22" height="1.22"/>
	<rect x="13.78" y="16.22" class="st9" width="1.22" height="1.22"/>
	<rect x="13.78" y="15" class="st9" width="1.22" height="1.22"/>
	<rect x="13.78" y="13.78" class="st9" width="1.22" height="1.22"/>
	<rect x="13.78" y="12.56" class="st9" width="1.22" height="1.22"/>
	<rect x="13.78" y="11.34" class="st9" width="1.22" height="1.22"/>
	<rect x="13.78" y="10.11" class="st7" width="1.22" height="1.22"/>
	<rect x="13.78" y="8.89" class="st4" width="1.22" height="1.22"/>
	<rect x="13.78" y="7.67" class="st4" width="1.22" height="1.22"/>
	<rect x="13.78" y="6.45" class="st4" width="1.22" height="1.22"/>
	<rect x="13.78" y="5.23" class="st4" width="1.22" height="1.22"/>
	<rect x="13.78" y="4.01" class="st6" width="1.22" height="1.22"/>
	<rect x="13.78" y="2.79" class="st6" width="1.22" height="1.22"/>
	<rect x="13.78" y="1.56" class="st6" width="1.22" height="1.22"/>
	<rect x="13.78" y="0.34" class="st5" width="1.22" height="1.22"/>
	<rect x="12.56" y="28.44" class="st3" width="1.22" height="1.22"/>
	<rect x="12.56" y="27.22" class="st1" width="1.22" height="1.22"/>
	<rect x="12.56" y="26" class="st7" width="1.22" height="1.22"/>
	<rect x="12.56" y="24.77" class="st6" width="1.22" height="1.22"/>
	<rect x="12.56" y="23.55" class="st6" width="1.22" height="1.22"/>
	<rect x="12.56" y="22.33" class="st2" width="1.22" height="1.22"/>
	<rect x="12.56" y="21.11" class="st2" width="1.22" height="1.22"/>
	<rect x="12.56" y="19.89" class="st2" width="1.22" height="1.22"/>
	<rect x="12.56" y="18.66" class="st3" width="1.22" height="1.22"/>
	<rect x="12.56" y="17.44" class="st3" width="1.22" height="1.22"/>
	<rect x="12.56" y="16.22" class="st3" width="1.22" height="1.22"/>
	<rect x="12.56" y="15" class="st3" width="1.22" height="1.22"/>
	<rect x="12.56" y="13.78" class="st3" width="1.22" height="1.22"/>
	<rect x="12.56" y="12.56" class="st3" width="1.22" height="1.22"/>
	<rect x="12.56" y="11.34" class="st3" width="1.22" height="1.22"/>
	<rect x="12.56" y="10.11" class="st7" width="1.22" height="1.22"/>
	<rect x="12.56" y="8.89" class="st4" width="1.22" height="1.22"/>
	<rect x="12.56" y="7.67" class="st4" width="1.22" height="1.22"/>
	<rect x="12.56" y="6.45" class="st4" width="1.22" height="1.22"/>
	<rect x="12.56" y="5.23" class="st4" width="1.22" height="1.22"/>
	<rect x="12.56" y="4.01" class="st4" width="1.22" height="1.22"/>
	<rect x="12.56" y="2.79" class="st4" width="1.22" height="1.22"/>
	<rect x="12.56" y="1.56" class="st6" width="1.22" height="1.22"/>
	<rect x="12.56" y="0.34" class="st5" width="1.22" height="1.22"/>
	<rect x="11.33" y="28.44" class="st3" width="1.22" height="1.22"/>
	<rect x="11.33" y="27.22" class="st1" width="1.22" height="1.22"/>
	<rect x="11.33" y="26" class="st7" width="1.22" height="1.22"/>
	<rect x="11.33" y="24.77" class="st1" width="1.22" height="1.22"/>
	<rect x="11.33" y="23.55" class="st4" width="1.22" height="1.22"/>
	<rect x="11.33" y="22.33" class="st2" width="1.22" height="1.22"/>
	<rect x="11.33" y="21.11" class="st2" width="1.22" height="1.22"/>
	<rect x="11.33" y="19.89" class="st2" width="1.22" height="1.22"/>
	<rect x="11.33" y="10.11" class="st3" width="1.22" height="1.22"/>
	<rect x="11.33" y="8.89" class="st7" width="1.22" height="1.22"/>
	<rect x="11.33" y="7.67" class="st4" width="1.22" height="1.22"/>
	<rect x="11.33" y="6.45" class="st4" width="1.22" height="1.22"/>
	<rect x="11.33" y="5.23" class="st4" width="1.22" height="1.22"/>
	<rect x="11.33" y="4.01" class="st4" width="1.22" height="1.22"/>
	<rect x="11.33" y="2.79" class="st4" width="1.22" height="1.22"/>
	<rect x="11.33" y="1.56" class="st7" width="1.22" height="1.22"/>
	<rect x="10.11" y="28.44" class="st3" width="1.22" height="1.22"/>
	<rect x="10.11" y="27.22" class="st1" width="1.22" height="1.22"/>
	<rect x="10.11" y="26" class="st7" width="1.22" height="1.22"/>
	<rect x="10.11" y="24.77" class="st1" width="1.22" height="1.22"/>
	<rect x="10.11" y="23.55" class="st4" width="1.22" height="1.22"/>
	<rect x="10.11" y="22.33" class="st2" width="1.22" height="1.22"/>
	<rect x="10.11" y="21.11" class="st2" width="1.22" height="1.22"/>
	<rect x="10.11" y="19.89" class="st2" width="1.22" height="1.22"/>
	<rect x="10.11" y="8.89" class="st3" width="1.22" height="1.22"/>
	<rect x="10.11" y="7.67" class="st7" width="1.22" height="1.22"/>
	<rect x="10.11" y="6.45" class="st7" width="1.22" height="1.22"/>
	<rect x="10.11" y="5.23" class="st7" width="1.22" height="1.22"/>
	<rect x="10.11" y="4.01" class="st7" width="1.22" height="1.22"/>
	<rect x="10.11" y="2.79" class="st7" width="1.22" height="1.22"/>
	<rect x="8.89" y="28.44" class="st3" width="1.22" height="1.22"/>
	<rect x="8.89" y="27.22" class="st1" width="1.22" height="1.22"/>
	<rect x="8.89" y="26" class="st7" width="1.22" height="1.22"/>
	<rect x="8.89" y="24.77" class="st7" width="1.22" height="1.22"/>
	<rect x="8.89" y="23.55" class="st4" width="1.22" height="1.22"/>
	<rect x="8.89" y="22.33" class="st2" width="1.22" height="1.22"/>
	<rect x="8.89" y="21.11" class="st2" width="1.22" height="1.22"/>
	<rect x="8.89" y="19.89" class="st2" width="1.22" height="1.22"/>
	<rect x="8.89" y="7.67" class="st3" width="1.22" height="1.22"/>
	<rect x="8.89" y="6.45" class="st3" width="1.22" height="1.22"/>
	<rect x="8.89" y="5.23" class="st3" width="1.22" height="1.22"/>
	<rect x="8.89" y="4.01" class="st3" width="1.22" height="1.22"/>
	<rect x="7.67" y="28.44" class="st3" width="1.22" height="1.22"/>
	<rect x="7.67" y="27.22" class="st1" width="1.22" height="1.22"/>
	<rect x="7.67" y="26" class="st1" width="1.22" height="1.22"/>
	<rect x="7.67" y="24.77" class="st1" width="1.22" height="1.22"/>
	<rect x="7.67" y="23.55" class="st2" width="1.22" height="1.22"/>
	<rect x="7.67" y="22.33" class="st2" width="1.22" height="1.22"/>
	<rect x="7.67" y="21.11" class="st2" width="1.22" height="1.22"/>
	<rect x="7.67" y="19.89" class="st1" width="1.22" height="1.22"/>
	<rect x="6.45" y="27.22" class="st3" width="1.22" height="1.22"/>
	<rect x="6.45" y="26" class="st1" width="1.22" height="1.22"/>
	<rect x="6.45" y="24.77" class="st1" width="1.22" height="1.22"/>
	<rect x="6.45" y="23.55" class="st1" width="1.22" height="1.22"/>
	<rect x="6.45" y="22.33" class="st1" width="1.22" height="1.22"/>
	<rect x="6.45" y="21.11" class="st1" width="1.22" height="1.22"/>
	<rect x="6.45" y="19.89" class="st3" width="1.22" height="1.22"/>
	<rect x="5.23" y="26" class="st3" width="1.22" height="1.22"/>
	<rect x="5.23" y="24.77" class="st3" width="1.22" height="1.22"/>
	<rect x="5.23" y="23.55" class="st3" width="1.22" height="1.22"/>
	<rect x="5.23" y="22.33" class="st3" width="1.22" height="1.22"/>
	<rect x="5.23" y="21.11" class="st3" width="1.22" height="1.22"/>
</g>
</svg>
