<?xml version="1.0" encoding="utf-8"?>
<!-- Generator: Adobe Illustrator 26.3.1, SVG Export Plug-In . SVG Version: 6.00 Build 0)  -->
<svg version="1.1" id="Capa_1" xmlns="http://www.w3.org/2000/svg" xmlns:xlink="http://www.w3.org/1999/xlink" x="0px" y="0px"
	 viewBox="0 0 30 6" style="enable-background:new 0 0 30 6;" xml:space="preserve">
<style type="text/css">
	.st0{fill:#1D2375;}
	.st1{fill:#D50E48;}
	.st2{fill:#3A42A8;}
	.st3{fill:#2E3190;}
	.st4{fill:#00A0B3;}
	.st5{fill:#FD2A5C;}
	.st6{fill:#ECEEEE;}
	.st7{fill:#FC5F88;}
	.st8{fill:#B7CACE;}
	.st9{fill:#96A4A6;}
</style>
<g>
	<g>
		<g>
			<path class="st0" d="M1.59,3.98v-2.3h1.97v0.33h0.33v0.98H3.22v0.33h0.33v0.33h0.33v0.33H2.89V3.65H2.58V3.32H2.24v0.66
				L1.59,3.98z M2.24,3h0.66V2.67h0.33V2.01H2.24V3z"/>
			<path class="st1" d="M3.91,4.01H2.88V3.68H2.55V3.35H2.28v0.66H1.55V1.66h2.02v0.33h0.33v1.04H3.26V3.3h0.33v0.33h0.33V4.01z
				 M2.93,3.96h0.93V3.69H3.53V3.36H3.2V2.98h0.66V2.04H3.53V1.71H1.62v2.24h0.6V3.29H2.6v0.33h0.33V3.96z M2.93,3.03H2.22V1.99
				h1.04V2.7H2.93V3.03z M2.28,2.97h0.6V2.64H3.2v-0.6H2.28V2.97z"/>
		</g>
		<g>
			<path class="st0" d="M4.55,3.98V3.65H4.22V2.67h0.33V2.34h1.64v0.33h0.33v0.66H4.87v0.33h1.31v0.33L4.55,3.98L4.55,3.98z M4.87,3
				h0.98V2.67H4.87V3z"/>
			<path class="st1" d="M6.21,4.01h-1.7V3.68H4.18V2.64h0.33V2.31h1.7v0.33h0.33v0.71H4.89v0.27H6.2L6.21,4.01z M4.57,3.96h1.59
				V3.69H4.85V3.31h1.64v-0.6H6.16V2.38H4.57v0.33H4.24v0.93h0.33V3.96z M5.88,3.03H4.85V2.64h1.04v0.39H5.88z M4.89,2.97h0.93V2.7
				H4.89V2.97z"/>
		</g>
		<g>
			<path class="st0" d="M7.83,3.98V2.67H7.16V2.34h0.66V1.68h0.66v0.66h0.66v0.33H8.47v1.31L7.83,3.98z"/>
			<path class="st1" d="M8.51,4.01H7.8V2.7H7.14V2.32H7.8V1.66h0.71v0.66h0.66V2.7H8.51V4.01z M7.84,3.96h0.6V2.64H9.1V2.37H8.44
				V1.71h-0.6v0.66H7.2v0.27h0.65V3.96z"/>
		</g>
		<g>
			<path class="st0" d="M10.44,2.67h0.33V3h-0.33v0.98H9.78V2.34h0.66V2.67z M11.76,2.34v0.33h-0.98V2.34H11.76z"/>
			<path class="st1" d="M10.47,4.01H9.76v-1.7h0.71v0.33h0.27V2.31h1.04v0.38h-0.98v0.33h-0.33L10.47,4.01z M9.81,3.96h0.6V2.98
				h0.33V2.71h-0.33V2.38h-0.6V3.96z M10.8,2.64h0.93V2.37H10.8V2.64z"/>
		</g>
		<g>
			<path class="st0" d="M12.41,3.98V3.65h-0.33V2.67h0.33V2.34h1.64v0.33h0.33v0.98h-0.33v0.33L12.41,3.98z M12.74,3.66h0.98V2.68
				h-0.98V3.66z"/>
			<path class="st1" d="M14.09,4.01h-1.7V3.68h-0.33V2.64h0.33V2.31h1.7v0.33h0.33v1.04h-0.33V4.01z M12.44,3.96h1.59V3.63h0.33V2.7
				h-0.33V2.37h-1.59V2.7h-0.33v0.93h0.33V3.96z M13.76,3.68h-1.04V2.64h1.04V3.68z M12.76,3.63h0.93V2.7h-0.93V3.63z"/>
		</g>
		<g>
			<path class="st0" d="M15.03,3.98V3.65H14.7V3.32h0.66v0.33h0.98V2.99h-1.31V2.66H14.7V2h0.33V1.67h1.64V2H17v0.34h-0.66V2.01
				h-0.98v0.66h1.31V3H17v0.66h-0.33v0.33L15.03,3.98L15.03,3.98z"/>
			<path class="st1" d="M16.7,4.01h-1.7V3.68h-0.33V3.3h0.71v0.33h0.93v-0.6h-1.31V2.7h-0.33V1.99h0.33V1.66h1.7v0.33h0.33v0.38
				h-0.71V2.04H15.4v0.6h1.31v0.33h0.33v0.71h-0.33L16.7,4.01z M15.06,3.96h1.59V3.63h0.33v-0.6h-0.33V2.7h-1.31V1.99h1.04v0.33h0.6
				V2.04h-0.33V1.71h-1.59v0.33h-0.33v0.6h0.33v0.33h1.31v0.71h-1.04V3.35h-0.6v0.27h0.33L15.06,3.96z"/>
		</g>
		<g>
			<path class="st0" d="M17.33,3.98v-2.3h0.66v0.66h1.31v0.33h0.33v1.31h-0.66V2.67h-0.98v1.31L17.33,3.98z"/>
			<path class="st1" d="M19.65,4.01h-0.71V2.7h-0.93v1.31h-0.71V1.66h0.71v0.66h1.31v0.33h0.33V4.01z M19,3.96h0.6V2.7h-0.33V2.37
				h-1.31V1.71h-0.6v2.24h0.6V2.64h1.04L19,3.96z"/>
		</g>
		<g>
			<path class="st0" d="M20.28,3.98V3.65h-0.33V2.67h0.33V2.34h1.64v0.33h0.33v0.98h-0.33v0.33L20.28,3.98z M20.61,3.66h0.98V2.68
				h-0.98V3.66z"/>
			<path class="st1" d="M21.95,4.01h-1.7V3.68h-0.33V2.64h0.33V2.31h1.7v0.33h0.33v1.04h-0.33V4.01z M20.32,3.96h1.59V3.63h0.33V2.7
				h-0.33V2.37h-1.59V2.7h-0.33v0.93h0.33V3.96z M21.62,3.68h-1.04V2.64h1.04V3.68z M20.65,3.63h0.93V2.7h-0.93V3.63z"/>
		</g>
		<g>
			<path class="st0" d="M22.58,4.31V2.34h1.97v0.33h0.33v0.66h-0.33v0.33h-1.31v0.66L22.58,4.31L22.58,4.31z M23.24,3.33h0.98V2.67
				h-0.98V3.33z"/>
			<path class="st1" d="M23.26,4.34h-0.71V2.32h2.02v0.33h0.33v0.71h-0.33v0.33h-1.31L23.26,4.34z M22.61,4.28h0.6V3.62h1.31V3.29
				h0.33v-0.6h-0.33V2.36h-1.91V4.28z M24.25,3.36h-1.04V2.64h1.04L24.25,3.36z M23.26,3.3h0.93V2.7h-0.93V3.3z"/>
		</g>
	</g>
	<g>
		<rect x="28.27" y="4.5" class="st2" width="0.17" height="0.17"/>
		<rect x="28.27" y="4.33" class="st2" width="0.17" height="0.17"/>
		<rect x="28.27" y="4.17" class="st2" width="0.17" height="0.17"/>
		<rect x="28.27" y="4" class="st2" width="0.17" height="0.17"/>
		<rect x="28.27" y="3.83" class="st2" width="0.17" height="0.17"/>
		<rect x="28.11" y="4.67" class="st0" width="0.17" height="0.17"/>
		<rect x="28.11" y="4.5" class="st0" width="0.17" height="0.17"/>
		<rect x="28.11" y="4.33" class="st3" width="0.17" height="0.17"/>
		<rect x="28.11" y="4.17" class="st3" width="0.17" height="0.17"/>
		<rect x="28.11" y="4" class="st3" width="0.17" height="0.17"/>
		<rect x="28.11" y="3.83" class="st3" width="0.17" height="0.17"/>
		<rect x="28.11" y="3.67" class="st2" width="0.17" height="0.17"/>
		<rect x="27.94" y="4.83" class="st4" width="0.17" height="0.17"/>
		<rect x="27.94" y="4.67" class="st0" width="0.17" height="0.17"/>
		<rect x="27.94" y="4.5" class="st5" width="0.17" height="0.17"/>
		<rect x="27.94" y="4.33" class="st3" width="0.17" height="0.17"/>
		<rect x="27.94" y="4.17" class="st3" width="0.17" height="0.17"/>
		<rect x="27.94" y="4" class="st3" width="0.17" height="0.17"/>
		<rect x="27.94" y="3.83" class="st3" width="0.17" height="0.17"/>
		<rect x="27.94" y="3.67" class="st2" width="0.17" height="0.17"/>
		<rect x="27.77" y="4.83" class="st4" width="0.17" height="0.17"/>
		<rect x="27.77" y="4.67" class="st0" width="0.17" height="0.17"/>
		<rect x="27.77" y="4.5" class="st0" width="0.17" height="0.17"/>
		<rect x="27.77" y="4.33" class="st3" width="0.17" height="0.17"/>
		<rect x="27.77" y="4.17" class="st3" width="0.17" height="0.17"/>
		<rect x="27.77" y="4" class="st3" width="0.17" height="0.17"/>
		<rect x="27.77" y="3.83" class="st3" width="0.17" height="0.17"/>
		<rect x="27.77" y="3.67" class="st2" width="0.17" height="0.17"/>
		<rect x="27.77" y="2" class="st6" width="0.17" height="0.17"/>
		<rect x="27.77" y="1.83" class="st6" width="0.17" height="0.17"/>
		<rect x="27.77" y="1.67" class="st6" width="0.17" height="0.17"/>
		<rect x="27.77" y="1.5" class="st6" width="0.17" height="0.17"/>
		<rect x="27.77" y="1.33" class="st6" width="0.17" height="0.17"/>
		<rect x="27.61" y="4.83" class="st4" width="0.17" height="0.17"/>
		<rect x="27.61" y="4.67" class="st0" width="0.17" height="0.17"/>
		<rect x="27.61" y="4.5" class="st5" width="0.17" height="0.17"/>
		<rect x="27.61" y="4.33" class="st3" width="0.17" height="0.17"/>
		<rect x="27.61" y="4.17" class="st3" width="0.17" height="0.17"/>
		<rect x="27.61" y="4" class="st3" width="0.17" height="0.17"/>
		<rect x="27.61" y="3.83" class="st3" width="0.17" height="0.17"/>
		<rect x="27.61" y="3.67" class="st2" width="0.17" height="0.17"/>
		<rect x="27.61" y="2.17" class="st5" width="0.17" height="0.17"/>
		<rect x="27.61" y="2" class="st7" width="0.17" height="0.17"/>
		<rect x="27.61" y="1.83" class="st7" width="0.17" height="0.17"/>
		<rect x="27.61" y="1.67" class="st7" width="0.17" height="0.17"/>
		<rect x="27.61" y="1.5" class="st7" width="0.17" height="0.17"/>
		<rect x="27.61" y="1.33" class="st7" width="0.17" height="0.17"/>
		<rect x="27.61" y="1.17" class="st6" width="0.17" height="0.17"/>
		<rect x="27.44" y="4.83" class="st4" width="0.17" height="0.17"/>
		<rect x="27.44" y="4.67" class="st0" width="0.17" height="0.17"/>
		<rect x="27.44" y="4.5" class="st0" width="0.17" height="0.17"/>
		<rect x="27.44" y="4.33" class="st3" width="0.17" height="0.17"/>
		<rect x="27.44" y="4.17" class="st3" width="0.17" height="0.17"/>
		<rect x="27.44" y="4" class="st3" width="0.17" height="0.17"/>
		<rect x="27.44" y="3.83" class="st3" width="0.17" height="0.17"/>
		<rect x="27.44" y="3.67" class="st2" width="0.17" height="0.17"/>
		<rect x="27.44" y="2.33" class="st1" width="0.17" height="0.17"/>
		<rect x="27.44" y="2.17" class="st5" width="0.17" height="0.17"/>
		<rect x="27.44" y="2" class="st7" width="0.17" height="0.17"/>
		<rect x="27.44" y="1.83" class="st7" width="0.17" height="0.17"/>
		<rect x="27.44" y="1.67" class="st7" width="0.17" height="0.17"/>
		<rect x="27.44" y="1.5" class="st7" width="0.17" height="0.17"/>
		<rect x="27.44" y="1.33" class="st7" width="0.17" height="0.17"/>
		<rect x="27.44" y="1.17" class="st7" width="0.17" height="0.17"/>
		<rect x="27.44" y="1" class="st6" width="0.17" height="0.17"/>
		<rect x="27.27" y="4.83" class="st4" width="0.17" height="0.17"/>
		<rect x="27.27" y="4.67" class="st0" width="0.17" height="0.17"/>
		<rect x="27.27" y="4.5" class="st5" width="0.17" height="0.17"/>
		<rect x="27.27" y="4.33" class="st3" width="0.17" height="0.17"/>
		<rect x="27.27" y="4.17" class="st3" width="0.17" height="0.17"/>
		<rect x="27.27" y="4" class="st3" width="0.17" height="0.17"/>
		<rect x="27.27" y="3.83" class="st3" width="0.17" height="0.17"/>
		<rect x="27.27" y="3.67" class="st2" width="0.17" height="0.17"/>
		<rect x="27.27" y="3.5" class="st8" width="0.17" height="0.17"/>
		<rect x="27.27" y="3.33" class="st8" width="0.17" height="0.17"/>
		<rect x="27.27" y="3.17" class="st8" width="0.17" height="0.17"/>
		<rect x="27.27" y="3" class="st8" width="0.17" height="0.17"/>
		<rect x="27.27" y="2.83" class="st8" width="0.17" height="0.17"/>
		<rect x="27.27" y="2.67" class="st8" width="0.17" height="0.17"/>
		<rect x="27.27" y="2.5" class="st9" width="0.17" height="0.17"/>
		<rect x="27.27" y="2.33" class="st1" width="0.17" height="0.17"/>
		<rect x="27.27" y="2.17" class="st5" width="0.17" height="0.17"/>
		<rect x="27.27" y="2" class="st5" width="0.17" height="0.17"/>
		<rect x="27.27" y="1.83" class="st7" width="0.17" height="0.17"/>
		<rect x="27.27" y="1.67" class="st7" width="0.17" height="0.17"/>
		<rect x="27.27" y="1.5" class="st7" width="0.17" height="0.17"/>
		<rect x="27.27" y="1.33" class="st7" width="0.17" height="0.17"/>
		<rect x="27.27" y="1.17" class="st7" width="0.17" height="0.17"/>
		<rect x="27.27" y="1" class="st6" width="0.17" height="0.17"/>
		<rect x="27.11" y="4.83" class="st4" width="0.17" height="0.17"/>
		<rect x="27.11" y="4.67" class="st0" width="0.17" height="0.17"/>
		<rect x="27.11" y="4.5" class="st0" width="0.17" height="0.17"/>
		<rect x="27.11" y="4.33" class="st3" width="0.17" height="0.17"/>
		<rect x="27.11" y="4.17" class="st3" width="0.17" height="0.17"/>
		<rect x="27.11" y="4" class="st3" width="0.17" height="0.17"/>
		<rect x="27.11" y="3.83" class="st3" width="0.17" height="0.17"/>
		<rect x="27.11" y="3.67" class="st2" width="0.17" height="0.17"/>
		<rect x="27.11" y="3.5" class="st8" width="0.17" height="0.17"/>
		<rect x="27.11" y="3.33" class="st8" width="0.17" height="0.17"/>
		<rect x="27.11" y="3.17" class="st8" width="0.17" height="0.17"/>
		<rect x="27.11" y="3" class="st8" width="0.17" height="0.17"/>
		<rect x="27.11" y="2.83" class="st8" width="0.17" height="0.17"/>
		<rect x="27.11" y="2.67" class="st8" width="0.17" height="0.17"/>
		<rect x="27.11" y="2.5" class="st9" width="0.17" height="0.17"/>
		<rect x="27.11" y="2.33" class="st1" width="0.17" height="0.17"/>
		<rect x="27.11" y="2.17" class="st5" width="0.17" height="0.17"/>
		<rect x="27.11" y="2" class="st5" width="0.17" height="0.17"/>
		<rect x="27.11" y="1.83" class="st5" width="0.17" height="0.17"/>
		<rect x="27.11" y="1.67" class="st7" width="0.17" height="0.17"/>
		<rect x="27.11" y="1.5" class="st7" width="0.17" height="0.17"/>
		<rect x="27.11" y="1.33" class="st7" width="0.17" height="0.17"/>
		<rect x="27.11" y="1.17" class="st7" width="0.17" height="0.17"/>
		<rect x="27.11" y="1" class="st6" width="0.17" height="0.17"/>
		<rect x="26.94" y="4.83" class="st4" width="0.17" height="0.17"/>
		<rect x="26.94" y="4.67" class="st0" width="0.17" height="0.17"/>
		<rect x="26.94" y="4.5" class="st0" width="0.17" height="0.17"/>
		<rect x="26.94" y="4.33" class="st3" width="0.17" height="0.17"/>
		<rect x="26.94" y="4.17" class="st3" width="0.17" height="0.17"/>
		<rect x="26.94" y="4" class="st3" width="0.17" height="0.17"/>
		<rect x="26.94" y="3.83" class="st3" width="0.17" height="0.17"/>
		<rect x="26.94" y="3.67" class="st3" width="0.17" height="0.17"/>
		<rect x="26.94" y="3.5" class="st9" width="0.17" height="0.17"/>
		<rect x="26.94" y="3.33" class="st9" width="0.17" height="0.17"/>
		<rect x="26.94" y="3.17" class="st9" width="0.17" height="0.17"/>
		<rect x="26.94" y="3" class="st9" width="0.17" height="0.17"/>
		<rect x="26.94" y="2.83" class="st9" width="0.17" height="0.17"/>
		<rect x="26.94" y="2.67" class="st9" width="0.17" height="0.17"/>
		<rect x="26.94" y="2.5" class="st9" width="0.17" height="0.17"/>
		<rect x="26.94" y="2.33" class="st1" width="0.17" height="0.17"/>
		<rect x="26.94" y="2.17" class="st5" width="0.17" height="0.17"/>
		<rect x="26.94" y="2" class="st5" width="0.17" height="0.17"/>
		<rect x="26.94" y="1.83" class="st5" width="0.17" height="0.17"/>
		<rect x="26.94" y="1.67" class="st5" width="0.17" height="0.17"/>
		<rect x="26.94" y="1.5" class="st7" width="0.17" height="0.17"/>
		<rect x="26.94" y="1.33" class="st7" width="0.17" height="0.17"/>
		<rect x="26.94" y="1.17" class="st7" width="0.17" height="0.17"/>
		<rect x="26.94" y="1" class="st6" width="0.17" height="0.17"/>
		<rect x="26.77" y="4.83" class="st4" width="0.17" height="0.17"/>
		<rect x="26.77" y="4.67" class="st0" width="0.17" height="0.17"/>
		<rect x="26.77" y="4.5" class="st1" width="0.17" height="0.17"/>
		<rect x="26.77" y="4.33" class="st7" width="0.17" height="0.17"/>
		<rect x="26.77" y="4.17" class="st7" width="0.17" height="0.17"/>
		<rect x="26.77" y="4" class="st3" width="0.17" height="0.17"/>
		<rect x="26.77" y="3.83" class="st3" width="0.17" height="0.17"/>
		<rect x="26.77" y="3.67" class="st3" width="0.17" height="0.17"/>
		<rect x="26.77" y="3.5" class="st4" width="0.17" height="0.17"/>
		<rect x="26.77" y="3.33" class="st4" width="0.17" height="0.17"/>
		<rect x="26.77" y="3.17" class="st4" width="0.17" height="0.17"/>
		<rect x="26.77" y="3" class="st4" width="0.17" height="0.17"/>
		<rect x="26.77" y="2.83" class="st4" width="0.17" height="0.17"/>
		<rect x="26.77" y="2.67" class="st4" width="0.17" height="0.17"/>
		<rect x="26.77" y="2.5" class="st4" width="0.17" height="0.17"/>
		<rect x="26.77" y="2.33" class="st1" width="0.17" height="0.17"/>
		<rect x="26.77" y="2.17" class="st5" width="0.17" height="0.17"/>
		<rect x="26.77" y="2" class="st5" width="0.17" height="0.17"/>
		<rect x="26.77" y="1.83" class="st5" width="0.17" height="0.17"/>
		<rect x="26.77" y="1.67" class="st5" width="0.17" height="0.17"/>
		<rect x="26.77" y="1.5" class="st5" width="0.17" height="0.17"/>
		<rect x="26.77" y="1.33" class="st5" width="0.17" height="0.17"/>
		<rect x="26.77" y="1.17" class="st7" width="0.17" height="0.17"/>
		<rect x="26.77" y="1" class="st6" width="0.17" height="0.17"/>
		<rect x="26.61" y="4.83" class="st4" width="0.17" height="0.17"/>
		<rect x="26.61" y="4.67" class="st0" width="0.17" height="0.17"/>
		<rect x="26.61" y="4.5" class="st1" width="0.17" height="0.17"/>
		<rect x="26.61" y="4.33" class="st0" width="0.17" height="0.17"/>
		<rect x="26.61" y="4.17" class="st5" width="0.17" height="0.17"/>
		<rect x="26.61" y="4" class="st3" width="0.17" height="0.17"/>
		<rect x="26.61" y="3.83" class="st3" width="0.17" height="0.17"/>
		<rect x="26.61" y="3.67" class="st3" width="0.17" height="0.17"/>
		<rect x="26.61" y="2.33" class="st4" width="0.17" height="0.17"/>
		<rect x="26.61" y="2.17" class="st1" width="0.17" height="0.17"/>
		<rect x="26.61" y="2" class="st5" width="0.17" height="0.17"/>
		<rect x="26.61" y="1.83" class="st5" width="0.17" height="0.17"/>
		<rect x="26.61" y="1.67" class="st5" width="0.17" height="0.17"/>
		<rect x="26.61" y="1.5" class="st5" width="0.17" height="0.17"/>
		<rect x="26.61" y="1.33" class="st5" width="0.17" height="0.17"/>
		<rect x="26.61" y="1.17" class="st1" width="0.17" height="0.17"/>
		<rect x="26.44" y="4.83" class="st4" width="0.17" height="0.17"/>
		<rect x="26.44" y="4.67" class="st0" width="0.17" height="0.17"/>
		<rect x="26.44" y="4.5" class="st1" width="0.17" height="0.17"/>
		<rect x="26.44" y="4.33" class="st0" width="0.17" height="0.17"/>
		<rect x="26.44" y="4.17" class="st5" width="0.17" height="0.17"/>
		<rect x="26.44" y="4" class="st3" width="0.17" height="0.17"/>
		<rect x="26.44" y="3.83" class="st3" width="0.17" height="0.17"/>
		<rect x="26.44" y="3.67" class="st3" width="0.17" height="0.17"/>
		<rect x="26.44" y="2.17" class="st4" width="0.17" height="0.17"/>
		<rect x="26.44" y="2" class="st1" width="0.17" height="0.17"/>
		<rect x="26.44" y="1.83" class="st1" width="0.17" height="0.17"/>
		<rect x="26.44" y="1.67" class="st1" width="0.17" height="0.17"/>
		<rect x="26.44" y="1.5" class="st1" width="0.17" height="0.17"/>
		<rect x="26.44" y="1.33" class="st1" width="0.17" height="0.17"/>
		<rect x="26.27" y="4.83" class="st4" width="0.17" height="0.17"/>
		<rect x="26.27" y="4.67" class="st0" width="0.17" height="0.17"/>
		<rect x="26.27" y="4.5" class="st1" width="0.17" height="0.17"/>
		<rect x="26.27" y="4.33" class="st1" width="0.17" height="0.17"/>
		<rect x="26.27" y="4.17" class="st5" width="0.17" height="0.17"/>
		<rect x="26.27" y="4" class="st3" width="0.17" height="0.17"/>
		<rect x="26.27" y="3.83" class="st3" width="0.17" height="0.17"/>
		<rect x="26.27" y="3.67" class="st3" width="0.17" height="0.17"/>
		<rect x="26.27" y="2" class="st4" width="0.17" height="0.17"/>
		<rect x="26.27" y="1.83" class="st4" width="0.17" height="0.17"/>
		<rect x="26.27" y="1.67" class="st4" width="0.17" height="0.17"/>
		<rect x="26.27" y="1.5" class="st4" width="0.17" height="0.17"/>
		<rect x="26.11" y="4.83" class="st4" width="0.17" height="0.17"/>
		<rect x="26.11" y="4.67" class="st0" width="0.17" height="0.17"/>
		<rect x="26.11" y="4.5" class="st0" width="0.17" height="0.17"/>
		<rect x="26.11" y="4.33" class="st0" width="0.17" height="0.17"/>
		<rect x="26.11" y="4.17" class="st3" width="0.17" height="0.17"/>
		<rect x="26.11" y="4" class="st3" width="0.17" height="0.17"/>
		<rect x="26.11" y="3.83" class="st3" width="0.17" height="0.17"/>
		<rect x="26.11" y="3.67" class="st0" width="0.17" height="0.17"/>
		<rect x="25.94" y="4.67" class="st4" width="0.17" height="0.17"/>
		<rect x="25.94" y="4.5" class="st0" width="0.17" height="0.17"/>
		<rect x="25.94" y="4.33" class="st0" width="0.17" height="0.17"/>
		<rect x="25.94" y="4.17" class="st0" width="0.17" height="0.17"/>
		<rect x="25.94" y="4" class="st0" width="0.17" height="0.17"/>
		<rect x="25.94" y="3.83" class="st0" width="0.17" height="0.17"/>
		<rect x="25.94" y="3.67" class="st4" width="0.17" height="0.17"/>
		<rect x="25.77" y="4.5" class="st4" width="0.17" height="0.17"/>
		<rect x="25.77" y="4.33" class="st4" width="0.17" height="0.17"/>
		<rect x="25.77" y="4.17" class="st4" width="0.17" height="0.17"/>
		<rect x="25.77" y="4" class="st4" width="0.17" height="0.17"/>
		<rect x="25.77" y="3.83" class="st4" width="0.17" height="0.17"/>
	</g>
</g>
</svg>
